# xmcd
#
# Track frame offsets:
#	150
#	13222
#	32960
#	60575
#	82503
#	95315
#	115810
#	132217
#	144849
#	163189
#	185424
#	205930
#	225441
#	247120
#	258944
#	276336
#	298992
#	312535
#	345370
#
# Disc length: 4745 seconds
#
# Revision: 1
# Processed by: cddbd v1.5.1PL0 Copyright (c) Steve Scherf et al.
# Submitted via: audiograbber 1.83.01
#
DISCID=0f128713
DTITLE=Gary Moore - The Best of The Blues
DYEAR=1900
DGENRE=Blues
TTITLE0=Walking By Myself
TTITLE1=Oh Pretty Woman
TTITLE2=Still Got The Blues
TTITLE3=Separate Ways
TTITLE4=Since I Met You Baby
TTITLE5=Story of The Blues
TTITLE6=All Your Love
TTITLE7=Too Tired
TTITLE8=Need Your Love So Bad
TTITLE9=Midnight Blues
TTITLE10=King of The Blues
TTITLE11=Jumpin at Shadows
TTITLE12=Texas Strut
TTITLE13=Moving On
TTITLE14=Stop Messin' Around
TTITLE15=Parisienne Walkways '93
TTITLE16=The Supranatural
TTITLE17=Cold Cold Feeling
TTITLE18=Key To Love
EXTD=
EXTT0=
EXTT1=
EXTT2=
EXTT3=
EXTT4=
EXTT5=
EXTT6=
EXTT7=
EXTT8=
EXTT9=
EXTT10=
EXTT11=
EXTT12=
EXTT13=
EXTT14=
EXTT15=
EXTT16=
EXTT17=
EXTT18=
PLAYORDER=
